<?xml version="1.0" encoding="UTF-8" standalone="no"?>
<!-- Created with Inkscape (http://www.inkscape.org/) -->

<svg
   width="24"
   height="21"
   viewBox="0 0 6.3499999 5.55625"
   version="1.1"
   id="svg1"
   xml:space="preserve"
   inkscape:version="1.3 (0e150ed6c4, 2023-07-21)"
   sodipodi:docname="PV1_sel.svg"
   xmlns:inkscape="http://www.inkscape.org/namespaces/inkscape"
   xmlns:sodipodi="http://sodipodi.sourceforge.net/DTD/sodipodi-0.dtd"
   xmlns="http://www.w3.org/2000/svg"
   xmlns:svg="http://www.w3.org/2000/svg"><sodipodi:namedview
     id="namedview1"
     pagecolor="#ffffff"
     bordercolor="#000000"
     borderopacity="0.25"
     inkscape:showpageshadow="2"
     inkscape:pageopacity="0.0"
     inkscape:pagecheckerboard="0"
     inkscape:deskcolor="#d1d1d1"
     inkscape:document-units="mm"
     inkscape:zoom="21.105114"
     inkscape:cx="8.3865931"
     inkscape:cy="10.400323"
     inkscape:window-width="2400"
     inkscape:window-height="1261"
     inkscape:window-x="2391"
     inkscape:window-y="-9"
     inkscape:window-maximized="1"
     inkscape:current-layer="layer1" /><defs
     id="defs1"><inkscape:path-effect
       effect="fillet_chamfer"
       id="path-effect3"
       is_visible="true"
       lpeversion="1"
       nodesatellites_param="F,0,0,1,0,0.79375,0,1 @ F,0,0,1,0,0.79375,0,1 @ F,0,0,1,0,0.79375,0,1 @ F,0,0,1,0,0.79375,0,1"
       radius="3"
       unit="px"
       method="auto"
       mode="F"
       chamfer_steps="1"
       flexible="false"
       use_knot_distance="true"
       apply_no_radius="true"
       apply_with_radius="true"
       only_selected="false"
       hide_knots="false" /><inkscape:path-effect
       effect="fillet_chamfer"
       id="path-effect1"
       is_visible="true"
       lpeversion="1"
       nodesatellites_param="F,0,0,1,0,0.79375,0,1 @ F,0,0,1,0,0.79375,0,1 @ F,0,0,1,0,0.79375,0,1 @ F,0,0,1,0,0.79375,0,1"
       radius="3"
       unit="px"
       method="auto"
       mode="F"
       chamfer_steps="1"
       flexible="false"
       use_knot_distance="true"
       apply_no_radius="true"
       apply_with_radius="true"
       only_selected="false"
       hide_knots="false" /></defs><g
     inkscape:label="Ebene 1"
     inkscape:groupmode="layer"
     id="layer1"><path
       style="display:none;fill:#bbbbbb;fill-opacity:0;stroke:#bbbbbb;stroke-width:0.272849;stroke-dasharray:none;stroke-opacity:1"
       id="rect1"
       width="8.7415819"
       height="5.5279469"
       x="0.0088646132"
       y="0.013166444"
       inkscape:path-effect="#path-effect1"
       sodipodi:type="rect"
       d="m 0.80261461,0.01316644 7.15408189,0 a 0.79375,0.79375 45 0 1 0.79375,0.79375 V 4.7473634 a 0.79375,0.79375 135 0 1 -0.79375,0.79375 H 0.80261461 a 0.79375,0.79375 45 0 1 -0.79375,-0.79375 V 0.80691644 a 0.79375,0.79375 135 0 1 0.79375,-0.79375 z"
       transform="matrix(0.98579203,0,0,0.9552909,0.12574791,0.12821317)" /><path
       style="fill:#fcac54;fill-opacity:1;stroke:#bbbbbb;stroke-width:0.272849;stroke-dasharray:none;stroke-opacity:1"
       id="path2"
       width="8.7415819"
       height="5.5279469"
       x="0.0088646132"
       y="0.013166444"
       inkscape:path-effect="#path-effect3"
       sodipodi:type="rect"
       d="m 0.80261461,0.01316644 7.15408189,0 a 0.79375,0.79375 45 0 1 0.79375,0.79375 V 4.7473634 a 0.79375,0.79375 135 0 1 -0.79375,0.79375 H 0.80261461 a 0.79375,0.79375 45 0 1 -0.79375,-0.79375 V 0.80691644 a 0.79375,0.79375 135 0 1 0.79375,-0.79375 z"
       transform="matrix(0.98579203,0,0,0.9552909,0.12574791,0.12821317)" /><path
       d="m 1.9573224,1.0313722 c -0.208109,0 -0.3868783,0.1466999 -0.4278177,0.3507151 L 1.1801537,3.1288399 C 1.1262485,3.3990407 1.3323126,3.6515012 1.607972,3.6515012 H 3.0886179 V 4.0881895 H 2.6519298 c -0.1207715,0 -0.2183444,0.097572 -0.2183444,0.2183441 0,0.1207712 0.097573,0.2183441 0.2183444,0.2183441 h 1.3100645 c 0.1207714,0 0.2183439,-0.097573 0.2183439,-0.2183441 0,-0.1207718 -0.097573,-0.2183441 -0.2183439,-0.2183441 H 3.525306 V 3.6515012 h 1.480646 c 0.2756592,0 0.4824038,-0.2517781 0.4285002,-0.5226613 L 5.0851017,1.3820873 C 5.0434796,1.1780721 4.8647105,1.0313722 4.6566012,1.0313722 Z m 0.9463853,0.4366882 h 0.8065085 l 0.070962,0.7096182 H 2.8327459 Z M 2.503865,2.1776786 H 1.8160815 L 1.9573224,1.4680604 H 2.5741446 Z M 1.7498957,2.5051946 H 2.470431 L 2.4001519,3.214813 H 1.6079724 Z m 1.0500986,0 H 3.8139297 L 3.8848917,3.214813 H 2.7290325 Z m 1.3428161,0 H 4.8633458 L 5.005952,3.214813 H 4.2144546 Z m 0.655032,-0.327516 H 4.1100587 L 4.0390968,1.4680604 H 4.6559187 L 4.870169,1.4250734 4.6566011,1.4680604 4.7985248,2.1776786 Z"
       id="path1"
       style="display:inline;fill:#ffffff;fill-opacity:1;stroke-width:0.00682327" /></g></svg>
