<?xml version="1.0" encoding="UTF-8" standalone="no"?>
<!-- Created with Inkscape (http://www.inkscape.org/) -->

<svg
   width="24"
   height="21"
   viewBox="0 0 6.3499999 5.55625"
   version="1.1"
   id="svg1"
   xml:space="preserve"
   inkscape:version="1.3 (0e150ed6c4, 2023-07-21)"
   sodipodi:docname="PV3_sel.svg"
   xmlns:inkscape="http://www.inkscape.org/namespaces/inkscape"
   xmlns:sodipodi="http://sodipodi.sourceforge.net/DTD/sodipodi-0.dtd"
   xmlns="http://www.w3.org/2000/svg"
   xmlns:svg="http://www.w3.org/2000/svg"><sodipodi:namedview
     id="namedview1"
     pagecolor="#ffffff"
     bordercolor="#000000"
     borderopacity="0.25"
     inkscape:showpageshadow="2"
     inkscape:pageopacity="0.0"
     inkscape:pagecheckerboard="0"
     inkscape:deskcolor="#d1d1d1"
     inkscape:document-units="mm"
     inkscape:zoom="21.105114"
     inkscape:cx="8.3865931"
     inkscape:cy="10.400323"
     inkscape:window-width="2400"
     inkscape:window-height="1261"
     inkscape:window-x="2391"
     inkscape:window-y="-9"
     inkscape:window-maximized="1"
     inkscape:current-layer="layer1"
     showguides="true" /><defs
     id="defs1"><inkscape:path-effect
       effect="fillet_chamfer"
       id="path-effect4"
       is_visible="true"
       lpeversion="1"
       nodesatellites_param="F,0,0,1,0,0.79375,0,1 @ F,0,0,1,0,0.79375,0,1 @ F,0,0,1,0,0.79375,0,1 @ F,0,0,1,0,0.79375,0,1"
       radius="3"
       unit="px"
       method="auto"
       mode="F"
       chamfer_steps="1"
       flexible="false"
       use_knot_distance="true"
       apply_no_radius="true"
       apply_with_radius="true"
       only_selected="false"
       hide_knots="false" /><inkscape:path-effect
       effect="fillet_chamfer"
       id="path-effect1"
       is_visible="true"
       lpeversion="1"
       nodesatellites_param="F,0,0,1,0,0.79375,0,1 @ F,0,0,1,0,0.79375,0,1 @ F,0,0,1,0,0.79375,0,1 @ F,0,0,1,0,0.79375,0,1"
       radius="3"
       unit="px"
       method="auto"
       mode="F"
       chamfer_steps="1"
       flexible="false"
       use_knot_distance="true"
       apply_no_radius="true"
       apply_with_radius="true"
       only_selected="false"
       hide_knots="false" /></defs><g
     inkscape:label="Ebene 1"
     inkscape:groupmode="layer"
     id="layer1"><path
       style="display:inline;fill:#bbbbbb;fill-opacity:0;stroke:#bbbbbb;stroke-width:0.272849;stroke-dasharray:none;stroke-opacity:1"
       id="rect1"
       width="8.7415819"
       height="5.5279469"
       x="0.0088646132"
       y="0.013166444"
       inkscape:path-effect="#path-effect1"
       sodipodi:type="rect"
       d="m 0.80261461,0.01316644 7.15408189,0 a 0.79375,0.79375 45 0 1 0.79375,0.79375 V 4.7473634 a 0.79375,0.79375 135 0 1 -0.79375,0.79375 H 0.80261461 a 0.79375,0.79375 45 0 1 -0.79375,-0.79375 V 0.80691644 a 0.79375,0.79375 135 0 1 0.79375,-0.79375 z"
       transform="matrix(0.98579203,0,0,0.9552909,-2.4106066,0.1177473)" /><path
       style="display:inline;fill:#fdac54;fill-opacity:1;stroke:#bbbbbb;stroke-width:0.272849;stroke-dasharray:none;stroke-opacity:1"
       id="path3"
       width="8.7415819"
       height="5.5279469"
       x="0.0088646132"
       y="0.013166444"
       inkscape:path-effect="#path-effect4"
       sodipodi:type="rect"
       d="m 0.80261461,0.01316644 7.15408189,0 a 0.79375,0.79375 45 0 1 0.79375,0.79375 V 4.7473634 a 0.79375,0.79375 135 0 1 -0.79375,0.79375 H 0.80261461 a 0.79375,0.79375 45 0 1 -0.79375,-0.79375 V 0.80691644 a 0.79375,0.79375 135 0 1 0.79375,-0.79375 z"
       transform="matrix(0.98579202,0,0,0.9552909,-2.4106066,0.1177473)" /><path
       d="m 1.692739,1.0313722 c -0.208109,0 -0.3868783,0.1466999 -0.4278177,0.3507151 L 0.91557033,3.1288399 C 0.86166513,3.3990407 1.0677292,3.6515012 1.3433886,3.6515012 H 2.8240345 V 4.0881895 H 2.3873464 c -0.1207715,0 -0.2183444,0.097572 -0.2183444,0.2183441 0,0.1207712 0.097573,0.2183441 0.2183444,0.2183441 h 1.3100645 c 0.1207714,0 0.2183439,-0.097573 0.2183439,-0.2183441 0,-0.1207718 -0.097573,-0.2183441 -0.2183439,-0.2183441 H 3.2607226 V 3.6515012 h 1.480646 c 0.2756592,0 0.4824038,-0.2517781 0.4285002,-0.5226613 L 4.8205183,1.3820873 C 4.7788962,1.1780721 4.6001271,1.0313722 4.3920178,1.0313722 Z m 0.9463853,0.4366882 h 0.8065085 l 0.070962,0.7096182 H 2.5681625 Z M 2.2392816,2.1776786 H 1.5514981 L 1.692739,1.4680604 H 2.3095612 Z M 1.4853123,2.5051946 H 2.2058476 L 2.1355685,3.214813 H 1.343389 Z m 1.0500986,0 H 3.5493463 L 3.6203083,3.214813 H 2.4644491 Z m 1.3428161,0 H 4.5987624 L 4.7413686,3.214813 H 3.9498712 Z M 4.533259,2.1776786 H 3.8454753 L 3.7745134,1.4680604 h 0.6168219 l 0.2142503,-0.042987 -0.2135679,0.042987 0.1419237,0.7096182 z"
       id="path1"
       style="display:inline;fill:#ffffff;fill-opacity:1;stroke-width:0.00682327" /></g></svg>
