<?xml version="1.0" encoding="utf-8"?>
<svg viewBox="0 0 500 500" width="500" height="500" xmlns="http://www.w3.org/2000/svg">
  <g id="LOGO" transform="matrix(0.5113319754600525, 0, 0, 0.5113319754600525, -0.40219900012016296, -0.9316000342370216)" style="">
    <g id="COLOR_BACKGROUND" transform="matrix(1.955677, 0, 0, 1.955677, -179.220703, -555.724487)"/>
    <g id="g-1" transform="matrix(1.955677, 0, 0, 1.955677, -179.220703, -555.724487)">
      <g>
        <g>
          <linearGradient id="SVGID_1_" gradientUnits="userSpaceOnUse" x1="246.6363" y1="500" x2="347.825" y2="500" gradientTransform="matrix(3.476164, 0, 0, 3.476164, -694.697912, -1201.757123)">
            <stop offset="0.0152" style="stop-color:#00F7C8"/>
            <stop offset="0.9994" style="stop-color:#00C3E0"/>
          </linearGradient>
          <path class="st1" d="M 179.281 757.304 C 177.993 757.304 176.708 757.165 175.421 756.852 C 167.948 755.045 162.698 748.371 162.698 740.688 L 162.698 553.08 C 162.698 543.902 170.138 536.465 179.314 536.465 L 264.584 536.465 L 372.485 324.418 C 375.334 318.855 381.036 315.345 387.293 315.345 C 457.407 315.345 514.486 372.389 514.486 442.539 C 514.486 512.653 457.442 569.73 387.293 569.73 L 284.885 569.73 L 194.054 748.266 C 191.203 753.898 185.396 757.304 179.281 757.304 Z M 195.861 569.696 L 195.861 671.443 L 247.62 569.696 L 195.861 569.696 Z M 301.814 536.465 L 387.224 536.465 C 439.018 536.465 481.184 494.333 481.184 442.503 C 481.184 394.046 444.303 354.035 397.165 349.065 L 301.814 536.465 Z" style="fill: url(#SVGID_1_); transform-box: fill-box; transform-origin: 50% 50%;"/>
        </g>
        <g>
          <g/>
        </g>
      </g>
    </g>
    <g id="g-2" transform="matrix(1, 0, 0, 1, -180.007324, -557.546509)"/>
  </g>
</svg>