<?xml version="1.0" encoding="UTF-8" standalone="no"?>
<!-- Created with Inkscape (http://www.inkscape.org/) -->

<svg
   width="24"
   height="21"
   viewBox="0 0 6.3499999 5.55625"
   version="1.1"
   id="svg1"
   xml:space="preserve"
   inkscape:version="1.3 (0e150ed6c4, 2023-07-21)"
   sodipodi:docname="Wind1_uns.svg"
   xmlns:inkscape="http://www.inkscape.org/namespaces/inkscape"
   xmlns:sodipodi="http://sodipodi.sourceforge.net/DTD/sodipodi-0.dtd"
   xmlns="http://www.w3.org/2000/svg"
   xmlns:svg="http://www.w3.org/2000/svg"><sodipodi:namedview
     id="namedview1"
     pagecolor="#ffffff"
     bordercolor="#000000"
     borderopacity="0.25"
     inkscape:showpageshadow="2"
     inkscape:pageopacity="0.0"
     inkscape:pagecheckerboard="0"
     inkscape:deskcolor="#d1d1d1"
     inkscape:document-units="mm"
     inkscape:zoom="14.923569"
     inkscape:cx="7.3708909"
     inkscape:cy="12.362994"
     inkscape:window-width="1920"
     inkscape:window-height="1009"
     inkscape:window-x="-8"
     inkscape:window-y="-8"
     inkscape:window-maximized="1"
     inkscape:current-layer="layer1" /><defs
     id="defs1"><inkscape:path-effect
       effect="fillet_chamfer"
       id="path-effect3"
       is_visible="true"
       lpeversion="1"
       nodesatellites_param="F,0,0,1,0,0.79375,0,1 @ F,0,0,1,0,0.79375,0,1 @ F,0,0,1,0,0.79375,0,1 @ F,0,0,1,0,0.79375,0,1"
       radius="3"
       unit="px"
       method="auto"
       mode="F"
       chamfer_steps="1"
       flexible="false"
       use_knot_distance="true"
       apply_no_radius="true"
       apply_with_radius="true"
       only_selected="false"
       hide_knots="false" /><inkscape:path-effect
       effect="fillet_chamfer"
       id="path-effect1"
       is_visible="true"
       lpeversion="1"
       nodesatellites_param="F,0,0,1,0,0.79375,0,1 @ F,0,0,1,0,0.79375,0,1 @ F,0,0,1,0,0.79375,0,1 @ F,0,0,1,0,0.79375,0,1"
       radius="3"
       unit="px"
       method="auto"
       mode="F"
       chamfer_steps="1"
       flexible="false"
       use_knot_distance="true"
       apply_no_radius="true"
       apply_with_radius="true"
       only_selected="false"
       hide_knots="false" /></defs><g
     inkscape:label="Ebene 1"
     inkscape:groupmode="layer"
     id="layer1"><path
       style="display:none;fill:#bbbbbb;fill-opacity:0;stroke:#bbbbbb;stroke-width:0.272849;stroke-dasharray:none;stroke-opacity:1"
       id="rect1"
       width="8.7415819"
       height="5.5279469"
       x="0.0088646132"
       y="0.013166444"
       inkscape:path-effect="#path-effect1"
       sodipodi:type="rect"
       d="m 0.80261461,0.01316644 7.15408189,0 a 0.79375,0.79375 45 0 1 0.79375,0.79375 V 4.7473634 a 0.79375,0.79375 135 0 1 -0.79375,0.79375 H 0.80261461 a 0.79375,0.79375 45 0 1 -0.79375,-0.79375 V 0.80691644 a 0.79375,0.79375 135 0 1 0.79375,-0.79375 z"
       transform="matrix(0.98579203,0,0,0.9552909,0.12574791,0.12821317)" /><path
       style="fill:#ffffff;fill-opacity:1;stroke:#bbbbbb;stroke-width:0.272849;stroke-dasharray:none;stroke-opacity:1"
       id="path2"
       width="8.7415819"
       height="5.5279469"
       x="0.0088646132"
       y="0.013166444"
       inkscape:path-effect="#path-effect3"
       sodipodi:type="rect"
       d="m 0.80261461,0.01316644 7.15408189,0 a 0.79375,0.79375 45 0 1 0.79375,0.79375 V 4.7473634 a 0.79375,0.79375 135 0 1 -0.79375,0.79375 H 0.80261461 a 0.79375,0.79375 45 0 1 -0.79375,-0.79375 V 0.80691644 a 0.79375,0.79375 135 0 1 0.79375,-0.79375 z"
       transform="matrix(0.98579203,0,0,0.9552909,0.12574791,0.12821317)" /><path
       d="m 1.9573224,1.0313722 c -0.208109,0 -0.3868783,0.1466999 -0.4278177,0.3507151 L 1.1801537,3.1288399 C 1.1262485,3.3990407 1.3323126,3.6515012 1.607972,3.6515012 H 3.0886179 V 4.0881895 H 2.6519298 c -0.1207715,0 -0.2183444,0.097572 -0.2183444,0.2183441 0,0.1207712 0.097573,0.2183441 0.2183444,0.2183441 h 1.3100645 c 0.1207714,0 0.2183439,-0.097573 0.2183439,-0.2183441 0,-0.1207718 -0.097573,-0.2183441 -0.2183439,-0.2183441 H 3.525306 V 3.6515012 h 1.480646 c 0.2756592,0 0.4824038,-0.2517781 0.4285002,-0.5226613 L 5.0851017,1.3820873 C 5.0434796,1.1780721 4.8647105,1.0313722 4.6566012,1.0313722 Z m 0.9463853,0.4366882 h 0.8065085 l 0.070962,0.7096182 H 2.8327459 Z M 2.503865,2.1776786 H 1.8160815 L 1.9573224,1.4680604 H 2.5741446 Z M 1.7498957,2.5051946 H 2.470431 L 2.4001519,3.214813 H 1.6079724 Z m 1.0500986,0 H 3.8139297 L 3.8848917,3.214813 H 2.7290325 Z m 1.3428161,0 H 4.8633458 L 5.005952,3.214813 H 4.2144546 Z m 0.655032,-0.327516 H 4.1100587 L 4.0390968,1.4680604 H 4.6559187 L 4.870169,1.4250734 4.6566011,1.4680604 4.7985248,2.1776786 Z"
       id="path1"
       style="display:none;fill:#ffffff;fill-opacity:1;stroke-width:0.00682327" /><g
       style="fill:#bbbbbb;fill-opacity:1"
       id="g1"
       transform="matrix(0.00457605,0,0,0.00457605,1.156808,4.9299523)"><path
         d="m 400,-40 q 0,-33 23.5,-56.5 Q 447,-120 480,-120 v -208 q -12,-5 -22.5,-11.5 Q 447,-346 438,-354 l -88,56 q -14,8 -30.5,10.5 Q 303,-285 286,-290 L 106,-341 Q 77,-349 58.5,-373.5 40,-398 40,-429 40,-467 66.5,-493.5 93,-520 131,-520 h 301 q 10,-11 22,-19 12,-8 26,-13 v -137 q 0,-17 6.5,-32 6.5,-15 18.5,-26 l 137,-128 q 23,-22 53.5,-25 30.5,-3 56.5,13 32,20 41.5,56.5 9.5,36.5 -10.5,68.5 l -159,263 q 7,12 10.5,26 3.5,14 4.5,29 l 108,26 q 16,4 29,14 13,10 21,24 l 91,164 q 15,27 11,57 -4,30 -26,52 -27,27 -64.5,27 -37.5,0 -64.5,-27 L 560,-291 v 171 q 33,0 56.5,23.5 Q 640,-73 640,-40 Z M 160,-760 v -80 h 240 v 80 z m 400,71 v 137 q 1,0 1.5,0.5 0.5,0.5 1.5,0.5 l 152,-253 q 2,-4 1,-8.5 -1,-4.5 -5,-6.5 -3,-2 -7.5,-1 -4.5,1 -6.5,3 z m -520,89 v -80 h 200 v 80 z m 480,200 q 17,0 28.5,-11.5 Q 560,-423 560,-440 560,-457 548.5,-468.5 537,-480 520,-480 q -17,0 -28.5,11.5 -11.5,11.5 -11.5,28.5 0,17 11.5,28.5 11.5,11.5 28.5,11.5 z m -211,34 93,-56 q -1,-5 -1,-9 v -9 H 131 q -5,0 -8,3 -3,3 -3,8 0,4 2,7 2,3 6,4 z m 419,25 -114,-26 q -2,2 -4,5 -2,3 -4,5 l 195,194 q 3,3 8,3 5,0 8,-3 3,-3 3.5,-6.5 0.5,-3.5 -1.5,-7.5 z m -608,221 v -80 h 200 v 80 z m 400,-320 z m 43,-111 z m -162,111 z m 205,83 z"
         id="path1-0"
         style="fill:#bbbbbb;fill-opacity:1" /></g></g></svg>
